<svg xmlns="http://www.w3.org/2000/svg" viewBox="0 0 512 512">
  <path fill="#0f172a" d="m 257.4,39.1 c -0.8,0 -3.5,1.8 -6.0,4.0 -16.4,14.2 -38.1,25.6 -65.2,34.4 -13.9,4.5 -41.0,11.3 -72.4,18.2 -13.5,3.0 -25.4,5.7 -26.3,6.1 -1.6,0.6 -1.7,6.7 -1.4,97.3 l 0.3,96.6 2.1,9.5 c 6.1,27.6 17.0,50.7 35.1,74.5 6.5,8.5 23.2,25.5 33.3,34.0 22.2,18.6 52.2,36.3 85.9,50.9 7.1,3.1 11.9,4.5 14.9,4.6 3.0,0.0 7.7,-1.4 15.0,-4.6 15.3,-6.6 39.0,-18.7 50.7,-25.6 29.5,-17.7 51.0,-36.1 69.1,-59.3 15.7,-20.1 28.4,-46.0 33.6,-68.3 3.4,-14.9 3.9,-22.8 3.9,-71.9 0.0,-29.7 -0.4,-49.3 -0.9,-49.3 -0.9,0 -8.5,7.7 -15.2,15.4 l -3.4,3.9 -0.6,42.6 -0.6,42.6 -2.5,10.5 c -1.4,5.8 -3.6,13.4 -4.8,17 -8.8,25.4 -26.2,50.8 -47.8,69.7 -16.9,14.8 -32.8,25.5 -55.4,37.3 -15.6,8.1 -37.9,18.0 -40.8,18.0 -2.6,0 -28.4,-11.5 -42.8,-19.1 -23.4,-12.3 -41.1,-24.8 -57.0,-40.3 -12.2,-11.8 -19.7,-20.8 -27.6,-32.8 -10.2,-15.7 -17.3,-33.0 -21.8,-53.7 l -2.1,-9.5 -0.4,-86.1 c -0.3,-70.0 -0.1,-86.3 0.9,-87.1 0.7,-0.6 13.3,-3.8 28.0,-7.2 30.2,-7.0 51.4,-12.6 66.8,-17.7 13.9,-4.6 36.6,-15.8 46.3,-22.8 4.3,-3.1 8.4,-5.6 9.1,-5.6 0.7,0 3.7,1.8 6.7,4.1 13.4,10.0 32.6,19.1 53.6,25.5 20.3,6.1 51.3,13.6 53.6,12.9 1.2,-0.4 3.0,-1.4 4.1,-2.3 2.4,-2.1 8.6,-11.5 8.6,-13.0 0,-0.6 -1.0,-1.4 -2.3,-1.6 C 347.7,83.1 313.5,72.7 296.5,64.7 285.0,59.3 272.1,51.1 264.5,44.2 261.4,41.4 258.2,39.1 257.4,39.1 Z m 171.7,29.0 c -1.9,0 -32.8,33.9 -118.1,129.3 -29.4,32.8 -54.1,59.7 -55.0,59.7 -0.9,0 -17.4,-16.0 -36.6,-35.5 -19.3,-19.5 -35.8,-35.5 -36.7,-35.5 -2.0,0.1 -18.9,18.9 -18.9,21.0 0,1.6 89.8,92.0 91.5,92.0 0.5,0 2.9,-2.1 5.4,-4.8 9.4,-10.0 88.8,-97.8 128.1,-141.7 l 41.2,-46.0 V 87.4 c 0,-10.6 -0.4,-19.3 -0.8,-19.3 z m -0.1,63.0 c -0.5,0 -28.5,30.7 -62.4,68.3 -90.8,100.7 -108.7,120.2 -110.1,120.5 -0.7,0.2 -24.2,-22.7 -52.2,-50.8 -28.0,-28.1 -51.7,-51.0 -52.6,-51.0 -1.6,0 -16.7,16.5 -18.4,20.1 -0.8,1.7 6.9,9.9 60.5,63.4 33.8,33.8 61.9,61.3 62.4,61.1 0.6,-0.2 29.5,-32.2 64.3,-71.3 34.8,-39.0 71.7,-80.3 82.0,-91.8 10.3,-11.5 20.6,-23.1 23.0,-25.8 l 4.3,-4.9 v -18.9 c 0,-10.4 -0.4,-18.9 -0.8,-18.9 z" />
</svg>
