<?xml version="1.0" standalone="no"?>
<!DOCTYPE svg PUBLIC "-//W3C//DTD SVG 20010904//EN"
 "http://www.w3.org/TR/2001/REC-SVG-20010904/DTD/svg10.dtd">
<svg version="1.0" xmlns="http://www.w3.org/2000/svg"
 width="341.000000pt" height="319.000000pt" viewBox="0 0 341.000000 319.000000"
 preserveAspectRatio="xMidYMid meet">
<metadata>
Created by potrace 1.16, written by Peter Selinger 2001-2019
</metadata>
<g transform="translate(0.000000,319.000000) scale(0.100000,-0.100000)"
fill="#22d3ee" stroke="none">
<path d="M1814 3021 c168 -82 368 -152 526 -183 63 -12 116 -23 118 -24 1 0 -50
-115 -114 -255 -64 -140 -152 -333 -194 -429 -43 -96 -103 -229 -133 -295 -30
-66 -121 -266 -201 -445 -81 -178 -148 -326 -149 -327 -2 -1 -27 53 -56 120
-30 67 -91 203 -136 302 -46 99 -124 272 -175 385 -51 113 -125 277 -165 365
-94 206 -119 265 -114 268 4 3 140 32 199 44 25 4 29 -4 114 -194 187 -418
318 -708 326 -723 10 -17 -1 -39 195 400 68 151 157 351 199 445 42 93 74 175
72 181 -2 6 -32 19 -65 28 -72 20 -226 83 -323 132 l-68 34 -58 -29 c-225
-114 -507 -200 -764 -236 -27 -3 -48 -8 -48 -10 0 -6 206 -465 550 -1225 81
-179 185 -409 231 -512 46 -103 87 -184 90 -180 3 4 125 270 269 592 145 322
289 641 320 710 31 69 128 284 215 478 l159 353 120 -7 c67 -4 122 -7 123 -8
2 -2 -15 -40 -222 -496 -78 -173 -195 -432 -260 -575 -64 -143 -237 -521 -383
-840 -145 -319 -280 -616 -300 -660 -19 -44 -37 -83 -41 -87 -3 -4 -59 109
-123 250 -64 141 -199 439 -301 662 -101 223 -257 567 -347 765 -89 198 -222
491 -295 652 -73 160 -136 300 -139 311 -6 18 1 19 116 26 355 19 671 101 963
249 61 31 114 56 119 56 5 1 73 -30 150 -68z m-1241 -767 l104 -230 6 -260 c7
-331 26 -424 126 -621 83 -165 234 -337 431 -495 l95 -75 83 -183 c45 -101 80
-185 78 -187 -7 -7 -216 136 -348 237 -153 118 -353 317 -437 435 -82 115
-163 284 -196 405 -50 187 -55 254 -55 752 0 254 2 459 4 457 2 -2 51 -108
109 -235z m2298 -669 c-22 -289 -94 -495 -251 -718 -82 -117 -260 -295 -415
-415 -131 -102 -355 -255 -363 -248 -2 3 33 88 79 190 l82 186 67 49 c291 217
471 462 547 749 24 90 27 117 31 361 l4 263 90 202 c50 110 100 221 112 246
l21 45 3 -390 c1 -214 -2 -448 -7 -520z"/>
</g>
</svg>
